<svg width="120" height="120" viewBox="0 0 120 120" fill="none" xmlns="http://www.w3.org/2000/svg">
<path d="M48.9066 19.4538C51.726 17.0512 53.1357 15.8498 54.6096 15.1454C58.0185 13.516 61.9816 13.516 65.3905 15.1454C66.8644 15.8498 68.2741 17.0512 71.0935 19.4538C72.2156 20.4101 72.7766 20.8882 73.3758 21.2898C74.7494 22.2104 76.292 22.8494 77.9142 23.1697C78.6219 23.3094 79.3567 23.368 80.8264 23.4853C84.5189 23.78 86.3651 23.9273 87.9055 24.4714C91.4681 25.7297 94.2704 28.532 95.5288 32.0946C96.0728 33.635 96.2202 35.4812 96.5148 39.1738C96.6321 40.6434 96.6907 41.3782 96.8305 42.0859C97.1507 43.7081 97.7897 45.2507 98.7103 46.6243C99.1119 47.2235 99.5901 47.7845 100.546 48.9066C102.949 51.726 104.15 53.1357 104.855 54.6096C106.484 58.0185 106.484 61.9816 104.855 65.3905C104.15 66.8644 102.949 68.2741 100.546 71.0935C99.5901 72.2156 99.1119 72.7766 98.7103 73.3759C97.7897 74.7494 97.1507 76.292 96.8305 77.9142C96.6907 78.6219 96.6321 79.3567 96.5148 80.8264C96.2202 84.5189 96.0728 86.3651 95.5288 87.9055C94.2704 91.4681 91.4681 94.2704 87.9055 95.5288C86.3651 96.0728 84.5189 96.2202 80.8264 96.5148C79.3567 96.6321 78.6219 96.6907 77.9142 96.8305C76.292 97.1507 74.7494 97.7897 73.3759 98.7103C72.7766 99.1119 72.2156 99.5901 71.0935 100.546C68.2741 102.949 66.8644 104.15 65.3905 104.855C61.9816 106.484 58.0185 106.484 54.6096 104.855C53.1357 104.15 51.726 102.949 48.9066 100.546C47.7845 99.5901 47.2235 99.1119 46.6243 98.7103C45.2507 97.7897 43.7081 97.1507 42.0859 96.8305C41.3782 96.6907 40.6434 96.6321 39.1738 96.5148C35.4812 96.2202 33.635 96.0728 32.0946 95.5288C28.532 94.2704 25.7297 91.4681 24.4714 87.9055C23.9273 86.3651 23.78 84.5189 23.4853 80.8264C23.368 79.3567 23.3094 78.6219 23.1697 77.9142C22.8494 76.292 22.2104 74.7494 21.2898 73.3758C20.8882 72.7766 20.4101 72.2156 19.4538 71.0935C17.0512 68.2741 15.8498 66.8644 15.1454 65.3905C13.516 61.9816 13.516 58.0185 15.1454 54.6096C15.8498 53.1357 17.0512 51.726 19.4538 48.9066C20.4101 47.7845 20.8882 47.2235 21.2898 46.6243C22.2104 45.2507 22.8494 43.7081 23.1697 42.0859C23.3094 41.3782 23.368 40.6434 23.4853 39.1738C23.78 35.4812 23.9273 33.635 24.4714 32.0946C25.7297 28.532 28.532 25.7297 32.0946 24.4714C33.635 23.9273 35.4812 23.78 39.1738 23.4853C40.6434 23.368 41.3782 23.3094 42.0859 23.1697C43.7081 22.8494 45.2507 22.2104 46.6243 21.2898C47.2235 20.8882 47.7845 20.4101 48.9066 19.4538Z" stroke="#2E6B4F" stroke-width="4"/>
<path d="M42.5 62.5L52.5 72.5L77.5 47.5" stroke="#2E6B4F" stroke-width="4" stroke-linecap="round" stroke-linejoin="round"/>
</svg>
